<svg xmlns="http://www.w3.org/2000/svg" xmlns:xlink="http://www.w3.org/1999/xlink" width="67" height="67" viewBox="0 0 67 67">
  <defs>
    <clipPath id="clip-path">
      <rect id="사각형_385" data-name="사각형 385" width="37.749" height="33.35" fill="none" stroke="#50bb8d" stroke-width="0.2"/>
    </clipPath>
  </defs>
  <g id="그룹_1379" data-name="그룹 1379" transform="translate(0 -0.331)">
    <circle id="타원_38" data-name="타원 38" cx="33.5" cy="33.5" r="33.5" transform="translate(0 0.331)" fill="#50bb8d"/>
    <g id="그룹_1361" data-name="그룹 1361" transform="translate(14.818 16.352)">
      <line id="선_19" data-name="선 19" x1="0.484" y2="0.484" transform="translate(18.984 6.481)" fill="#fff" stroke="#50bb8d" stroke-width="0.2"/>
      <g id="그룹_1175" data-name="그룹 1175">
        <g id="그룹_1174" data-name="그룹 1174" clip-path="url(#clip-path)">
          <path id="패스_4488" data-name="패스 4488" d="M97.912,37.844a.133.133,0,0,1-.032.028.139.139,0,0,0,.028-.032Z" transform="translate(-78.38 -30.301)" fill="#fff" stroke="#50bb8d" stroke-width="0.2"/>
          <path id="패스_4489" data-name="패스 4489" d="M92.5,150.8a1.552,1.552,0,0,1-.129.153l.042-.241Z" transform="translate(-73.968 -120.685)" fill="#fff" stroke="#50bb8d" stroke-width="0.2"/>
          <path id="패스_4490" data-name="패스 4490" d="M92.5,150.8a1.552,1.552,0,0,1-.129.153l.042-.241Z" transform="translate(-73.968 -120.685)" fill="#fff" stroke="#50bb8d" stroke-width="0.2"/>
          <path id="패스_4491" data-name="패스 4491" d="M111.461,46.623v0a.825.825,0,0,0-.261-.175.786.786,0,0,1,.261.173" transform="translate(-89.046 -37.196)" fill="#fff" stroke="#50bb8d" stroke-width="0.2"/>
          <line id="선_20" data-name="선 20" x1="0.002" y1="0.002" transform="translate(7.102 18.964)" fill="#fff" stroke="#50bb8d" stroke-width="0.2"/>
          <line id="선_21" data-name="선 21" x1="0.548" y1="0.548" transform="translate(18.356 6.497)" fill="#fff" stroke="#50bb8d" stroke-width="0.2"/>
          <path id="패스_4492" data-name="패스 4492" d="M78.848,19.462l-.038.038a.342.342,0,0,1,.036-.04Z" transform="translate(-63.109 -15.583)" fill="#fff" stroke="#50bb8d" stroke-width="0.2"/>
          <path id="패스_4493" data-name="패스 4493" d="M97.912,37.844a.133.133,0,0,1-.032.028.139.139,0,0,0,.028-.032Z" transform="translate(-78.38 -30.301)" fill="#fff" stroke="#50bb8d" stroke-width="0.2"/>
          <path id="패스_4494" data-name="패스 4494" d="M97.912,37.844a.133.133,0,0,1-.032.028.139.139,0,0,0,.028-.032Z" transform="translate(-78.38 -30.301)" fill="#fff" stroke="#50bb8d" stroke-width="0.2"/>
          <path id="패스_4495" data-name="패스 4495" d="M92.412,150.71l-.042.241a1.552,1.552,0,0,0,.129-.153Z" transform="translate(-73.968 -120.685)" fill="#fff" stroke="#50bb8d" stroke-width="0.2"/>
          <line id="선_22" data-name="선 22" x1="4.343" y1="4.345" transform="translate(25.714 19.932)" fill="#fff" stroke="#50bb8d" stroke-width="0.2"/>
          <line id="선_23" data-name="선 23" x1="4.343" y1="4.345" transform="translate(22.823 22.823)" fill="#fff" stroke="#50bb8d" stroke-width="0.2"/>
          <line id="선_24" data-name="선 24" x1="4.345" y1="4.345" transform="translate(19.93 25.714)" fill="#fff" stroke="#50bb8d" stroke-width="0.2"/>
          <path id="패스_4496" data-name="패스 4496" d="M36.735,9.156,28.652,1.074a3.47,3.47,0,0,0-4.907,0L20.827,3.994,18.9,5.917l-2.04-2.038v0L14,1.016a3.468,3.468,0,0,0-4.9,0L1.016,9.1a3.47,3.47,0,0,0,0,4.9l2.863,2.863.044.042,2.052,2.054-.944.944A2.787,2.787,0,0,0,7,24.666a.294.294,0,0,0,.042,0,.323.323,0,0,0,0,.044A2.789,2.789,0,0,0,9.83,27.5a.322.322,0,0,0,.044,0,.294.294,0,0,0,0,.042,2.785,2.785,0,0,0,2.787,2.789.323.323,0,0,0,.044,0,.323.323,0,0,0,0,.044,2.788,2.788,0,0,0,4.759,1.97l.944-.944.942.942a3.473,3.473,0,0,0,4.9,0L25.385,31.2a.2.2,0,0,0,.034-.034l2.865-2.863.01-.01.018-.02,2.871-2.869,0,0,1.15-1.15a3.475,3.475,0,0,0,0-4.9l-.444-.444,1.922-1.923,2.921-2.921a3.471,3.471,0,0,0,0-4.9M2.142,12.876a1.876,1.876,0,0,1,0-2.65l8.082-8.084a1.878,1.878,0,0,1,2.652,0l2.3,2.3L4.441,15.177Zm5.7,9.848a1.194,1.194,0,1,1-1.687-1.689l1.45-1.45,0,0a.539.539,0,0,1,.062-.056A1.194,1.194,0,0,1,9.3,21.271Zm2.829,2.829a1.194,1.194,0,1,1-1.687-1.689l1.452-1.452A1.195,1.195,0,1,1,12.127,24.1ZM13.5,28.381a1.195,1.195,0,0,1-1.689-1.689l1.452-1.452a1.2,1.2,0,0,1,1.689,0,1.19,1.19,0,0,1,0,1.687ZM17.838,29.7a.686.686,0,0,1-.052.056L16.332,31.21a1.194,1.194,0,0,1-1.689-1.687L16.1,28.07A1.194,1.194,0,0,1,17.838,29.7m13.37-6.576-.588.588-4.343-4.345A.8.8,0,1,0,25.15,20.5l4.343,4.345L27.73,26.6l-4.343-4.345a.8.8,0,0,0-1.128,1.128L26.6,27.732l-1.763,1.763L20.494,25.15a.8.8,0,0,0-1.128,0,.7.7,0,0,0-.122.159.791.791,0,0,0,.122.966l4.345,4.345-.586.588a1.881,1.881,0,0,1-2.652,0l-1.042-1.042a2.786,2.786,0,0,0-.474-3.176.543.543,0,0,0-.046-.05,2.773,2.773,0,0,0-1.972-.817.294.294,0,0,0-.042,0,.323.323,0,0,0,0-.044A2.789,2.789,0,0,0,14.111,23.3a.294.294,0,0,0-.042,0,.323.323,0,0,0,0-.044,2.789,2.789,0,0,0-2.789-2.787.323.323,0,0,0-.044,0,.323.323,0,0,0,0-.044,2.788,2.788,0,0,0-4.04-2.49L5.568,16.3,16.3,5.568,17.793,7.06l-4.745,4.745a2.87,2.87,0,0,0,2.028,4.9h0a2.848,2.848,0,0,0,2.028-.841l4.745-4.745L30.2,19.468l1.008,1.008a1.875,1.875,0,0,1,0,2.65m-.442-5.347L22.415,9.429v0a.786.786,0,0,0-.261-.173h0l-.074-.026L22,9.21a.816.816,0,0,0-.209-.012l-.058.006a.546.546,0,0,0-.056.01.571.571,0,0,0-.056.014.727.727,0,0,0-.141.058.3.3,0,0,0-.06.036.593.593,0,0,0-.058.04.519.519,0,0,0-.062.054.1.1,0,0,0-.016.014l-5.309,5.309a1.276,1.276,0,0,1-1.8-1.8l5.391-5.391a.718.718,0,0,0,.11-.139l1.717-1.717L32.125,16.42Zm4.841-4.845L33.25,15.292,22.516,4.558,24.873,2.2a1.873,1.873,0,0,1,2.652,0l8.082,8.082a1.875,1.875,0,0,1,0,2.65" transform="translate(0 0)" fill="#fff" stroke="#50bb8d" stroke-width="0.2"/>
          <path id="패스_4497" data-name="패스 4497" d="M19.27,53.74a1,1,0,1,1-1-1,1,1,0,0,1,1,1" transform="translate(-13.829 -42.233)" fill="#fff" stroke="#50bb8d" stroke-width="0.2"/>
        </g>
      </g>
    </g>
  </g>
</svg>
