<svg xmlns="http://www.w3.org/2000/svg" xmlns:xlink="http://www.w3.org/1999/xlink" width="110" height="110" viewBox="0 0 110 110">
  <defs>
    <clipPath id="clip-path">
      <rect id="사각형_469" data-name="사각형 469" width="110" height="110" transform="translate(1583 2020)" fill="#fff" stroke="#707070" stroke-width="1"/>
    </clipPath>
    <clipPath id="clip-path-2">
      <rect id="사각형_465" data-name="사각형 465" width="88" height="90" transform="translate(-2 -2)" fill="#319500" stroke="#319400" stroke-width="1"/>
    </clipPath>
  </defs>
  <g id="마스크_그룹_3" data-name="마스크 그룹 3" transform="translate(-1583 -2020)" clip-path="url(#clip-path)">
    <g id="그룹_1282" data-name="그룹 1282" transform="translate(1596 2032)">
      <g id="그룹_1281" data-name="그룹 1281" clip-path="url(#clip-path-2)">
        <path id="패스_10918" data-name="패스 10918" d="M83.732,23.326V52.074a2.963,2.963,0,0,1-2.966,2.966H56.8a2.058,2.058,0,0,0-1.483.628L42.773,68.192a1.255,1.255,0,0,1-.907.384,1.217,1.217,0,0,1-.89-.384L28.434,55.667a2.128,2.128,0,0,0-1.5-.628H2.966A2.963,2.963,0,0,1,0,52.074V23.326A2.963,2.963,0,0,1,2.966,20.36H15.229v2.547H2.966a.424.424,0,0,0-.419.419V52.074a.428.428,0,0,0,.419.436H26.934a4.617,4.617,0,0,1,3.3,1.361L41.866,65.506,53.519,53.87A4.548,4.548,0,0,1,56.8,52.51H80.767a.432.432,0,0,0,.436-.436V23.326a.428.428,0,0,0-.436-.419H67.527a.132.132,0,0,1,.017.07,2.293,2.293,0,0,1-.4-1.43,1.83,1.83,0,0,1,.576-1.186H80.767a2.963,2.963,0,0,1,2.966,2.966" transform="translate(0 15.157)" fill="#319500" stroke="#319400" stroke-width="1"/>
        <path id="패스_10919" data-name="패스 10919" d="M61.29,35.447a3.354,3.354,0,0,0,.209-.436A5.734,5.734,0,0,0,62,32.638a5.3,5.3,0,0,0-1.779-4.117,6.359,6.359,0,0,0,1.413-4.2,5.6,5.6,0,0,0-5.321-5.7H42.4a27.016,27.016,0,0,0,.506-8.042C42.328,4.413,39.257.175,35.263.018c-3.419-.14-4.815.593-5.076.733a1.294,1.294,0,0,0-.593,1.343c.576,2.7,1.273,7.571.75,9.123-1.134,3.419-3.925,6.437-6.385,9.106C21.935,22.5,20.3,24.3,19.72,26.062H10A1.281,1.281,0,0,0,8.73,27.335V52.019A1.266,1.266,0,0,0,10,53.275H51.817a2.963,2.963,0,0,0,.419-.017,6.123,6.123,0,0,0,5.512-7.763,6.194,6.194,0,0,0,3.594-5.565,5.91,5.91,0,0,0-.279-1.762.061.061,0,0,0-.017-.035,2.293,2.293,0,0,1-.4-1.43,1.83,1.83,0,0,1,.576-1.186Zm-41.8,15.3H11.259V28.591h8.234ZM57.783,37.47a3.52,3.52,0,0,1,1.029,2.46,3.713,3.713,0,0,1-3,3.559,1.262,1.262,0,0,0-.907.715,1.333,1.333,0,0,0,.052,1.151,3.494,3.494,0,0,1,.471,1.744,3.7,3.7,0,0,1-3.471,3.628c-.035,0-.087.017-.14.017H22.023V27.335c0-1.186,1.936-3.262,3.785-5.286,2.512-2.721,5.634-6.088,6.943-10.03.733-2.163-.035-7.047-.454-9.315a13.35,13.35,0,0,1,2.861-.157c2.582.1,4.78,3.576,5.216,8.269a24.813,24.813,0,0,1-.82,8.722,1.233,1.233,0,0,0,.209,1.116,1.256,1.256,0,0,0,1.012.506H56.318a3.093,3.093,0,0,1,2.774,3.157c0,2.372-1.361,3.105-1.587,3.14a1.251,1.251,0,0,0-1.256,1.256A1.266,1.266,0,0,0,57.5,29.987c.837,0,1.971.925,1.971,2.652a3.6,3.6,0,0,1-1.465,2.878c-.017,0-.035.017-.052.035a1.29,1.29,0,0,0-.523.925,1.257,1.257,0,0,0,.349.994" transform="translate(6.499 0)" fill="#ffa200" stroke="#ffa200" stroke-width="1"/>
        <path id="패스_10920" data-name="패스 10920" d="M14.357,27.453a1.273,1.273,0,1,1-1.273-1.273,1.266,1.266,0,0,1,1.273,1.273" transform="translate(8.792 19.489)" fill="#ffa200" stroke="#ffa200" stroke-width="1"/>
      </g>
    </g>
  </g>
</svg>
