<svg xmlns="http://www.w3.org/2000/svg" xmlns:xlink="http://www.w3.org/1999/xlink" width="110" height="110" viewBox="0 0 110 110">
  <defs>
    <clipPath id="clip-path">
      <rect id="사각형_480" data-name="사각형 480" width="85.296" height="51.68" fill="#fff" stroke="#fff" stroke-width="0.2"/>
    </clipPath>
  </defs>
  <g id="그룹_1318" data-name="그룹 1318" transform="translate(-1339 -1590)">
    <circle id="타원_26" data-name="타원 26" cx="55" cy="55" r="55" transform="translate(1339 1590)" fill="#5fc954"/>
    <g id="그룹_1303" data-name="그룹 1303" transform="translate(1353 1621)">
      <g id="그룹_1302" data-name="그룹 1302" transform="translate(-2 -2)" clip-path="url(#clip-path)">
        <path id="패스_10942" data-name="패스 10942" d="M83.209,71.04a6.549,6.549,0,0,0-.318.8,6.78,6.78,0,0,0-.217.8H64.16a2.687,2.687,0,0,0,.223-.8,2.335,2.335,0,0,0,.032-.387V71.04Z" transform="translate(-28.297 -31.527)" fill="#fff" stroke="#fff" stroke-width="0.2"/>
        <path id="패스_10943" data-name="패스 10943" d="M33.494,11.094a2.744,2.744,0,0,0-.8-.541,2.671,2.671,0,0,0-1.072-.223H17.553a2.649,2.649,0,0,0-2.074.992l-2.265,2.817-.005.005L5.1,24.223a.067.067,0,0,0-.021.037L3.029,26.8a2.669,2.669,0,0,0-.589,1.666v9.092h-.6A1.835,1.835,0,0,0,0,39.389v2.737a1.839,1.839,0,0,0,1.835,1.835h.727A2.666,2.666,0,0,0,5.1,45.824H11.49a7.254,7.254,0,0,0,14.5,0h5.66a2.724,2.724,0,0,0,2.382-1.7,2.687,2.687,0,0,0,.223-.8,2.335,2.335,0,0,0,.032-.387V12.988a2.644,2.644,0,0,0-.8-1.894M2.44,42.37h-.6a.243.243,0,0,1-.244-.244V39.389a.239.239,0,0,1,.244-.239h.6ZM28.5,15.438v8.487H7.379l6.832-8.487ZM5.724,24.722H5.718M24.4,45.824a5.664,5.664,0,0,1-11.32,0c-.005-.069-.005-.138-.005-.207a5.33,5.33,0,0,1,.032-.589,5,5,0,0,1,.143-.8,5.661,5.661,0,0,1,10.981,0,5,5,0,0,1,.143.8,5.329,5.329,0,0,1,.032.589c0,.069,0,.138-.005.207m7.241-.8a1.5,1.5,0,0,0,.377-.053,1.293,1.293,0,0,1-.377.053M32.7,42.943a1.209,1.209,0,0,1-.064.387,1.384,1.384,0,0,1-.615.8.75.75,0,0,1-.377.106H25.866a7.258,7.258,0,0,0-14.248,0H5.1a1.069,1.069,0,0,1-1.072-1.066v-6.8H32.7Zm0-8.169H4.032V28.467A1.052,1.052,0,0,1,4.27,27.8l1.835-2.281H29.3a.8.8,0,0,0,.8-.8V14.643a.8.8,0,0,0-.8-.8H15.49l1.231-1.528a1.059,1.059,0,0,1,.833-.4H31.626A1.067,1.067,0,0,1,32.7,12.988Z" transform="translate(1.829 -3.022)" fill="#fff" stroke="#fff" stroke-width="0.2"/>
        <path id="패스_10944" data-name="패스 10944" d="M49.562,44.531a.616.616,0,0,1-.615.615H46.055a.618.618,0,0,1,0-1.236h2.891a.617.617,0,0,1,.615.621" transform="translate(-19.507 -18.789)" fill="#fff" stroke="#fff" stroke-width="0.2"/>
        <path id="패스_10945" data-name="패스 10945" d="M12.44,28.447h.005l6.827-8.487Zm0,0h.005l6.827-8.487Zm-1.66.8h.005M36.7,49.549a1.293,1.293,0,0,0,.377-.053,1.5,1.5,0,0,1-.377.053M12.44,28.447h.005l6.827-8.487Z" transform="translate(-3.233 -7.543)" fill="#fff" stroke="#fff" stroke-width="0.2"/>
        <path id="패스_10946" data-name="패스 10946" d="M59.65,75.693a1.293,1.293,0,0,0,.377-.053,1.5,1.5,0,0,1-.377.053" transform="translate(-26.179 -33.687)" fill="#fff" stroke="#fff" stroke-width="0.2"/>
        <path id="패스_10947" data-name="패스 10947" d="M35.832,72.111a3.936,3.936,0,0,0-.175-.8,4.685,4.685,0,0,0-8.954,0,3.936,3.936,0,0,0-.175.8,4.28,4.28,0,0,0-.037.589c0,.069,0,.138.005.207a4.688,4.688,0,0,0,9.368,0c.005-.069.005-.138.005-.207a4.28,4.28,0,0,0-.037-.589m-1.565.8a3.094,3.094,0,0,1-6.175,0,1.352,1.352,0,0,1-.011-.207,3.078,3.078,0,0,1,.058-.589,2.938,2.938,0,0,1,.271-.8,3.094,3.094,0,0,1,5.538,0,2.937,2.937,0,0,1,.271.8,3.078,3.078,0,0,1,.058.589,1.352,1.352,0,0,1-.011.207" transform="translate(-10.609 -30.104)" fill="#fff" stroke="#fff" stroke-width="0.2"/>
        <line id="선_29" data-name="선 29" x1="0.005" transform="translate(7.547 21.7)" fill="#6ed1ff" stroke="#fff" stroke-width="0.2"/>
        <path id="패스_10948" data-name="패스 10948" d="M49.562,44.531a.616.616,0,0,1-.615.615H46.055a.618.618,0,0,1,0-1.236h2.891a.617.617,0,0,1,.615.621" transform="translate(-19.507 -18.789)" fill="#fff" stroke="#fff" stroke-width="0.2"/>
        <path id="패스_10949" data-name="패스 10949" d="M110.581,2.323V30.2a.8.8,0,0,0-.8-.8h-.8V2.323a.734.734,0,0,0-.732-.732H63.963a.734.734,0,0,0-.732.732V8.137a2.645,2.645,0,0,0-.8-1.894,2.744,2.744,0,0,0-.8-.541V2.323A2.33,2.33,0,0,1,63.963,0h44.294a2.33,2.33,0,0,1,2.323,2.323" transform="translate(-27.114 1.829)" fill="#fff" stroke="#fff" stroke-width="0.2"/>
        <path id="패스_10950" data-name="패스 10950" d="M111.194,55.44H64.64v1.591H110.4v1.761H64.64v1.591H86.612a7.267,7.267,0,0,0-3.177,3.331,6.546,6.546,0,0,0-.318.8,6.778,6.778,0,0,0-.217.8,7.257,7.257,0,1,0,14.206,0h12.8a.8.8,0,0,0,.8-.8V60.384h.493a.8.8,0,0,0,.8-.8V56.236a.8.8,0,0,0-.8-.8M90,72.463A5.671,5.671,0,0,1,84.336,66.8a5.526,5.526,0,0,1,.2-1.491,5.651,5.651,0,0,1,.281-.8,4.807,4.807,0,0,1,.435-.8,5.654,5.654,0,0,1,9.5,0,4.807,4.807,0,0,1,.435.8,5.65,5.65,0,0,1,.281.8,5.525,5.525,0,0,1,.2,1.491A5.671,5.671,0,0,1,90,72.463m19.107-8.747H96.569a7.267,7.267,0,0,0-3.177-3.331h15.718Z" transform="translate(-28.522 -24.202)" fill="#fff" stroke="#fff" stroke-width="0.2"/>
        <path id="패스_10951" data-name="패스 10951" d="M112.745,71.209a4.284,4.284,0,0,0-.355-.8,4.152,4.152,0,0,0-.562-.8,4.675,4.675,0,0,0-7.055,0,4.152,4.152,0,0,0-.562.8,4.284,4.284,0,0,0-.355.8,4.622,4.622,0,0,0-.244,1.491,4.689,4.689,0,1,0,9.379,0,4.622,4.622,0,0,0-.244-1.491M108.3,69.6q.159,0,.318.016a3.063,3.063,0,0,1,1.766.8,2.987,2.987,0,0,1,.631.8A3.067,3.067,0,0,1,111.4,72.7a3.1,3.1,0,1,1-6.2,0,3.068,3.068,0,0,1,.382-1.491,2.988,2.988,0,0,1,.631-.8,3.063,3.063,0,0,1,1.766-.8" transform="translate(-46.82 -30.104)" fill="#fff" stroke="#fff" stroke-width="0.2"/>
      </g>
    </g>
  </g>
</svg>
