<svg id="그룹_1366" data-name="그룹 1366" xmlns="http://www.w3.org/2000/svg" xmlns:xlink="http://www.w3.org/1999/xlink" width="67" height="67" viewBox="0 0 67 67">
  <defs>
    <clipPath id="clip-path">
      <rect id="사각형_384" data-name="사각형 384" width="39.96" height="33.941" transform="matrix(1, -0.017, 0.017, 1, 0, 0.697)" fill="#fff" stroke="#fff" stroke-width="1"/>
    </clipPath>
  </defs>
  <circle id="타원_33" data-name="타원 33" cx="33.5" cy="33.5" r="33.5" fill="#71dea4"/>
  <g id="그룹_1358" data-name="그룹 1358" transform="translate(13.324 15.499)">
    <g id="그룹_1171" data-name="그룹 1171" transform="translate(0)" clip-path="url(#clip-path)">
      <path id="패스_4481" data-name="패스 4481" d="M28.118,18.422H28.11a.463.463,0,0,1-.327-.144c-1.138-1.195-2.45-2.357-3.719-3.48-3.258-2.885-6.335-5.61-6.335-8.681C17.728,1.892,20.561,0,23.368,0a4.788,4.788,0,0,1,4.7,2.632A4.872,4.872,0,0,1,32.791,0a5.468,5.468,0,0,1,5.54,5.64c0,4.028-3.494,7.034-6.873,9.941-1.022.879-2.08,1.789-3.016,2.708a.461.461,0,0,1-.324.132M23.368.926c-2.175,0-4.714,1.36-4.714,5.191,0,2.654,2.926,5.245,6.023,7.987,1.166,1.032,2.368,2.1,3.451,3.2.869-.828,1.811-1.638,2.726-2.425,3.369-2.9,6.551-5.636,6.551-9.239A4.562,4.562,0,0,0,32.791.926a4.043,4.043,0,0,0-4.238,2.861l-.044.137a.463.463,0,0,1-.43.321.456.456,0,0,1-.445-.3A4.023,4.023,0,0,0,23.368.926" transform="translate(-7.849 1.273)" fill="#fff" stroke="#fff" stroke-width="1"/>
      <path id="패스_4482" data-name="패스 4482" d="M64.174,30.2a.464.464,0,0,1-.451-.568,8.741,8.741,0,0,1,.386-1.141,34.651,34.651,0,0,1,2.655-3.568c1.384-1.77,3.462-4.431,3.681-4.953-.021-.808-1.494-7.853-2.44-12.207a1.226,1.226,0,0,0-1.21-.541.9.9,0,0,0-.854.933l1.138,8.484a.463.463,0,0,1-.918.123l-1.144-8.53a.485.485,0,0,1,0-.086,1.832,1.832,0,0,1,1.6-1.832,2.135,2.135,0,0,1,2.256,1.116.471.471,0,0,1,.028.087c.6,2.771,2.56,11.868,2.465,12.587-.059.451-.971,1.678-3.871,5.39-1.124,1.439-2.4,3.069-2.528,3.348a7.915,7.915,0,0,0-.34,1,.464.464,0,0,1-.451.357" transform="translate(-32.538 -2.103)" fill="#fff" stroke="#fff" stroke-width="1"/>
      <path id="패스_4483" data-name="패스 4483" d="M48.7,40.9h-.031a.463.463,0,0,1-.432-.492l.27-4.059a5.313,5.313,0,0,1,1.237-2.909l5.074-5.59a2.575,2.575,0,0,1,3.066-.831l.034.013a2.092,2.092,0,0,1,1.164,1.127,1.456,1.456,0,0,1-.142,1.21l-4.583,6.714a.463.463,0,1,1-.765-.522l4.561-6.678a.5.5,0,0,0,.052-.425,1.162,1.162,0,0,0-.627-.564l-.027-.011a1.681,1.681,0,0,0-2.033.575l-5.079,5.6a4.453,4.453,0,0,0-1,2.336l-.271,4.078a.463.463,0,0,1-.462.433" transform="translate(-24.232 -13.123)" fill="#fff" stroke="#fff" stroke-width="1"/>
      <path id="패스_4484" data-name="패스 4484" d="M55.912,61.566H43.246a.463.463,0,0,1-.463-.463V56.394a.463.463,0,0,1,.463-.463H55.912a.463.463,0,0,1,.463.463V61.1a.463.463,0,0,1-.463.463m-12.2-.926H55.449V56.857H43.709Z" transform="translate(-21.302 -28.758)" fill="#fff" stroke="#fff" stroke-width="1"/>
      <path id="패스_4485" data-name="패스 4485" d="M7.193,30.2a.464.464,0,0,1-.451-.357A7.941,7.941,0,0,0,6.4,28.836c-.128-.274-1.4-1.9-2.526-3.343C.974,21.782.062,20.554,0,20.1c-.094-.719,1.863-9.816,2.465-12.587A.472.472,0,0,1,2.5,7.43,2.136,2.136,0,0,1,4.734,6.31,1.839,1.839,0,0,1,6.355,8.146a.486.486,0,0,1,0,.086l-1.144,8.53a.463.463,0,1,1-.918-.123L5.427,8.155c-.047-.633-.357-.824-.873-.936a1.223,1.223,0,0,0-1.191.545C2.417,12.117.944,19.162.923,19.97c.219.522,2.3,3.183,3.681,4.953A34.738,34.738,0,0,1,7.259,28.49a8.758,8.758,0,0,1,.386,1.141.464.464,0,0,1-.451.568" transform="translate(1.67 -2.101)" fill="#fff" stroke="#fff" stroke-width="1"/>
      <path id="패스_4486" data-name="패스 4486" d="M18.885,40.9a.463.463,0,0,1-.461-.433l-.27-4.058a4.437,4.437,0,0,0-1.013-2.364l-5.059-5.574a1.692,1.692,0,0,0-2.046-.589l-.027.011a1.164,1.164,0,0,0-.627.564.53.53,0,0,0,.075.461l4.538,6.641a.463.463,0,1,1-.765.522L8.668,29.406A1.485,1.485,0,0,1,8.5,28.16a2.092,2.092,0,0,1,1.164-1.127L9.7,27.02a2.582,2.582,0,0,1,3.078.846l5.054,5.567a5.333,5.333,0,0,1,1.245,2.937l.27,4.039a.463.463,0,0,1-.432.492h-.031" transform="translate(-2.858 -13.123)" fill="#fff" stroke="#fff" stroke-width="1"/>
      <path id="패스_4487" data-name="패스 4487" d="M21.241,61.566H8.575a.463.463,0,0,1-.463-.463V56.394a.463.463,0,0,1,.463-.463H21.241a.463.463,0,0,1,.463.463V61.1a.463.463,0,0,1-.463.463m-12.2-.926H20.778V56.857H9.038Z" transform="translate(-2.686 -28.758)" fill="#fff" stroke="#fff" stroke-width="1"/>
    </g>
  </g>
</svg>
