<svg xmlns="http://www.w3.org/2000/svg" xmlns:xlink="http://www.w3.org/1999/xlink" width="111" height="110" viewBox="0 0 111 110">
  <defs>
    <clipPath id="clip-path">
      <rect id="사각형_468" data-name="사각형 468" width="111" height="110" transform="translate(1070 2020)" fill="#fff" stroke="#707070" stroke-width="1"/>
    </clipPath>
    <clipPath id="clip-path-2">
      <rect id="사각형_466" data-name="사각형 466" width="81.331" height="96.213" fill="#309500" stroke="#309500" stroke-width="1"/>
    </clipPath>
  </defs>
  <g id="마스크_그룹_4" data-name="마스크 그룹 4" transform="translate(-1070 -2020)" clip-path="url(#clip-path)">
    <g id="그룹_1285" data-name="그룹 1285" transform="translate(1085.252 2026.556)">
      <g id="그룹_1284" data-name="그룹 1284" transform="translate(0)" clip-path="url(#clip-path-2)">
        <path id="패스_10921" data-name="패스 10921" d="M25.812,42.057,15.4,61.184,25.825,42.057Zm.013,0h-.013L15.4,61.184l-12.384.383L19.84,38.874c-.548-.37-1.08-.766-1.6-1.189L.193,62.029a.989.989,0,0,0-.081,1.044A1.017,1.017,0,0,0,1,63.615c.013,0,.013,0,.027-.013l14.517-.436.493-.013a1.008,1.008,0,0,0,.853-.528l.307-.568L27.73,42.731c-.64-.2-1.28-.423-1.9-.674M27.158,34a.311.311,0,0,0,.092.053.968.968,0,0,0,.853,0L28.21,34Z" transform="translate(5.435 16.296)" fill="#309500" stroke="#309500" stroke-width="1"/>
        <path id="패스_10922" data-name="패스 10922" d="M30.953,47.484,21.887,70.679,13.451,60.1,23.98,40.774c-.64-.2-1.28-.423-1.9-.674L11.652,59.227l-.268.5a.975.975,0,0,0,.095,1.083l.32.4,9.6,12.06a1,1,0,0,0,.786.383.644.644,0,0,0,.159-.013.982.982,0,0,0,.773-.621l8.917-22.8Z" transform="translate(9.184 18.254)" fill="#309500" stroke="#309500" stroke-width="1"/>
        <path id="패스_10923" data-name="패스 10923" d="M32.514,34l.107.053a1.044,1.044,0,0,0,.866,0A.284.284,0,0,0,33.568,34ZM60.533,62.029,42.484,37.685c-.52.423-1.053.832-1.6,1.2l16.821,22.68-12.381-.383L34.913,42.071c-.626.238-1.266.462-1.918.66L43.524,62.056l.307.568a1.01,1.01,0,0,0,.853.528l.493.013,14.515.436a.041.041,0,0,0,.027.013,1.014,1.014,0,0,0,.893-.542.989.989,0,0,0-.079-1.044" transform="translate(16.259 16.296)" fill="#309500" stroke="#309500" stroke-width="1"/>
        <path id="패스_10924" data-name="패스 10924" d="M45.471,59.725l-.267-.5L34.793,40.11c-.625.238-1.266.462-1.918.66L43.4,60.1l.307.568a1.01,1.01,0,0,0,.854.528l.492.013.32-.4a.954.954,0,0,0,.095-1.083" transform="translate(16.379 18.257)" fill="#309500" stroke="#309500" stroke-width="1"/>
        <path id="패스_10925" data-name="패스 10925" d="M47.893,60.81,38.3,72.87a.988.988,0,0,1-.786.383.5.5,0,0,1-.147-.013,1,1,0,0,1-.786-.621l-8.9-22.8-1.078-2.734L24.354,41.34a20.562,20.562,0,0,0,2.213.185l1.106,2.814,1.066,2.734L37.8,70.281,46.24,59.7l.307.568a1.008,1.008,0,0,0,.853.528Z" transform="translate(13.542 18.652)" fill="#309500" stroke="#309500" stroke-width="1"/>
        <path id="패스_10926" data-name="패스 10926" d="M33.753,0A27.357,27.357,0,0,0,16.212,48.6q.78.634,1.6,1.189a26.386,26.386,0,0,0,5.971,3.183H23.8c.626.251,1.266.476,1.906.674a26.575,26.575,0,0,0,4.732.964,20.534,20.534,0,0,0,2.213.185c.373.013.733.026,1.106.026s.733-.013,1.093-.026a20.535,20.535,0,0,0,2.213-.185,26.575,26.575,0,0,0,4.732-.964c.652-.2,1.293-.423,1.918-.66A27.418,27.418,0,0,0,49.68,49.8c.546-.37,1.08-.779,1.6-1.2A27.255,27.255,0,0,0,61.411,27.409,27.568,27.568,0,0,0,33.753,0M50.081,46.984c-.507.436-1.041.832-1.587,1.215a25.332,25.332,0,0,1-5.743,3.025,19.462,19.462,0,0,1-1.933.621,24.162,24.162,0,0,1-2.932.66,20.722,20.722,0,0,1-2.239.251c-.626.053-1.253.079-1.893.079s-1.266-.026-1.893-.079a21.354,21.354,0,0,1-2.253-.251,23.951,23.951,0,0,1-2.919-.66,16.51,16.51,0,0,1-1.933-.634h-.013A25.313,25.313,0,0,1,19,48.186a17.206,17.206,0,0,1-1.586-1.2A25.232,25.232,0,0,1,8.094,27.409a25.66,25.66,0,0,1,51.317,0,25.248,25.248,0,0,1-9.33,19.576" transform="translate(7.464 5.386)" fill="#309500" stroke="#309500" stroke-width="1"/>
        <path id="패스_10927" data-name="패스 10927" d="M36.555,34l.107.053a1.044,1.044,0,0,0,.866,0A.284.284,0,0,0,37.609,34Zm-16.18,0a.311.311,0,0,0,.092.053.968.968,0,0,0,.853,0L21.427,34Z" transform="translate(12.218 16.296)" fill="#309500" stroke="#309500" stroke-width="1"/>
        <path id="패스_10928" data-name="패스 10928" d="M47.832,25.48l2.772-3.5a.973.973,0,0,0-.347-1.506l-4.025-1.968.96-4.346a.979.979,0,0,0-.96-1.2l-4.505-.026L40.7,8.586a.994.994,0,0,0-1.4-.66l-4.065,1.9L32.41,6.367a1.031,1.031,0,0,0-1.559,0L28.025,9.827l-4.065-1.9a1,1,0,0,0-1.4.66l-1.028,4.346-4.5.026a.98.98,0,0,0-.961,1.2l.974,4.346L13,20.474a.969.969,0,0,0-.533.674.985.985,0,0,0,.185.832l2.772,3.5-2.772,3.5a.985.985,0,0,0-.185.832.969.969,0,0,0,.533.674l4.039,1.955L16.069,36.8a.949.949,0,0,0,.188.819A1,1,0,0,0,17.03,38l4.5.026,1.028,4.333a.972.972,0,0,0,.453.621h1.052l3.959-1.849,1.506,1.849,1.32,1.611a1,1,0,0,0,.786.37.987.987,0,0,0,.773-.37l1.32-1.611,1.506-1.849,3.959,1.849h1.053a.945.945,0,0,0,.453-.621l1.026-4.333L46.233,38a1,1,0,0,0,.773-.383.948.948,0,0,0,.187-.819l-.96-4.359,4.025-1.955A.973.973,0,0,0,50.6,28.98ZM44.646,31a1.016,1.016,0,0,0-.546,1.11l.88,3.91-4.052.026a1.022,1.022,0,0,0-.96.766l-.933,3.91-3.652-1.717a.989.989,0,0,0-1.2.277L31.637,42.4l-2.546-3.117a.991.991,0,0,0-.786-.37,1.038,1.038,0,0,0-.427.092l-3.651,1.717-.934-3.91a1.021,1.021,0,0,0-.958-.766l-4.053-.026.88-3.91A1,1,0,0,0,18.628,31l-3.639-1.757L17.5,26.088a1,1,0,0,0,0-1.228l-2.506-3.144,3.639-1.77a.987.987,0,0,0,.533-1.1l-.88-3.923,4.053-.026a.991.991,0,0,0,.958-.766l.934-3.9,3.651,1.717a1.03,1.03,0,0,0,1.213-.277l2.546-3.117,2.546,3.117a.993.993,0,0,0,1.2.277l3.652-1.717.933,3.9a.993.993,0,0,0,.96.766l4.052.026-.88,3.923a1,1,0,0,0,.546,1.1l3.626,1.77-2.493,3.144a.968.968,0,0,0,0,1.228l2.493,3.157Z" transform="translate(9.578 7.314)" fill="#ffa200" stroke="#ffa200" stroke-width="1"/>
      </g>
    </g>
  </g>
</svg>
