<svg xmlns="http://www.w3.org/2000/svg" xmlns:xlink="http://www.w3.org/1999/xlink" width="67" height="67" viewBox="0 0 67 67">
  <defs>
    <clipPath id="clip-path">
      <rect id="사각형_382" data-name="사각형 382" width="45.875" height="26.395" fill="#fff"/>
    </clipPath>
  </defs>
  <g id="그룹_1364" data-name="그룹 1364" transform="translate(0 0.338)">
    <circle id="타원_37" data-name="타원 37" cx="33.5" cy="33.5" r="33.5" transform="translate(0 -0.338)" fill="#188f6b"/>
    <g id="그룹_1359" data-name="그룹 1359" transform="translate(10.499 20.679)">
      <g id="그룹_1162" data-name="그룹 1162" clip-path="url(#clip-path)">
        <path id="패스_4471" data-name="패스 4471" d="M40.45,24.182c-4.774-.156-8.271-3.989-8.417-4.154a7.884,7.884,0,0,0-5.186-2.6c-3.8.225-6.928-3.347-7.061-3.5a.629.629,0,0,1-.092-.683l3.519-7.356c1.011-2.112,3.51-2.049,4.688-1.721a.627.627,0,0,1,.39.318,6.875,6.875,0,0,0,4.253,3.8,5.735,5.735,0,0,0,2.2.057,7.019,7.019,0,0,0,1.1-.268c.052-.018.112-.044.179-.071.4-.166,1.226-.516,1.753.157.08.1.265.336,2.134,6.149l5.148,1.1c1.972.417,3.439,2.523,3.869,4.387a3.067,3.067,0,0,1-.335,2.567A3.277,3.277,0,0,1,45.9,23.923ZM26.819,16.17a9.073,9.073,0,0,1,6.143,3.013c.037.041,3.3,3.6,7.479,3.742l5.4-.258a2,2,0,0,0,1.678-.98,1.841,1.841,0,0,0,.175-1.614c-.332-1.441-1.464-3.136-2.906-3.441l-5.5-1.172a.626.626,0,0,1-.468-.422c-.794-2.474-1.709-5.236-2.007-6-.1.031-.233.086-.308.118-.1.043-.2.08-.276.107a8.317,8.317,0,0,1-1.29.315,7.017,7.017,0,0,1-2.679-.075,7.921,7.921,0,0,1-4.946-4.184c-.641-.116-2.308-.271-2.967,1.107L21.015,13.4c.8.8,3.192,2.918,5.8,2.775" transform="translate(-3.182 -0.647)" fill="#fff"/>
        <path id="패스_4472" data-name="패스 4472" d="M52.5,20.192s-.008,0-.01-.008.015.022.023.031a.131.131,0,0,0-.013-.023" transform="translate(-8.506 -3.271)" fill="#fff"/>
        <path id="패스_4473" data-name="패스 4473" d="M38.787,28.764c-4.744-.157-8.241-3.99-8.388-4.155a7.97,7.97,0,0,0-5.188-2.6c-3.767.214-6.925-3.348-7.058-3.5a.629.629,0,0,1-.092-.683l1.368-2.86a.626.626,0,0,1,.482-.352.634.634,0,0,1,.559.209c.028.033,2.9,3.255,6.084,3.069A9.076,9.076,0,0,1,32.7,20.9c.037.041,3.3,3.6,7.479,3.742,0,0,5.286-.251,5.4-.257l.091-.013a2.452,2.452,0,0,0,.664-.143,1.939,1.939,0,0,0,1.2-1.657.629.629,0,0,1,1.257-.008v0h0v0h0v0a15.967,15.967,0,0,1-.566,4.4c-.432,1.077-2.6,1.631-4.317,1.778Zm-13.6-8.012a9.07,9.07,0,0,1,6.142,3.013c.037.041,3.3,3.6,7.48,3.742h5.045c2.092-.182,3.1-.8,3.208-1a6.292,6.292,0,0,0,.313-1.417,3.13,3.13,0,0,1-1.55.531l-.131.017c.005,0,.005,0-5.509.263-4.773-.155-8.271-3.989-8.417-4.153a7.882,7.882,0,0,0-5.185-2.6c-2.829.165-5.275-1.769-6.406-2.832l-.794,1.661c.769.769,3.023,2.783,5.541,2.783.088,0,.176,0,.263-.008" transform="translate(-2.917 -2.367)" fill="#fff"/>
        <path id="패스_4474" data-name="패스 4474" d="M39.571,13.06a.838.838,0,0,1-1.13.4.87.87,0,0,1-.388-1.152.836.836,0,0,1,1.129-.4.869.869,0,0,1,.39,1.152" transform="translate(-6.153 -1.916)" fill="#fff"/>
        <path id="패스_4475" data-name="패스 4475" d="M40.636,16.22a.837.837,0,0,1-1.13.4.869.869,0,0,1-.389-1.152.839.839,0,0,1,1.13-.4.87.87,0,0,1,.389,1.153" transform="translate(-6.325 -2.428)" fill="#fff"/>
        <line id="선_14" data-name="선 14" x2="11.731" transform="translate(12.359 0.628)" fill="#fff"/>
        <path id="패스_4476" data-name="패스 4476" d="M26.36,1.257H14.628a.628.628,0,1,1,0-1.257H26.36a.628.628,0,1,1,0,1.257" transform="translate(-2.269)" fill="#fff"/>
        <line id="선_15" data-name="선 15" x2="10.893" transform="translate(13.197 22.415)" fill="#fff"/>
        <path id="패스_4477" data-name="패스 4477" d="M26.522,27.257H15.628a.628.628,0,1,1,0-1.257H26.522a.628.628,0,1,1,0,1.257" transform="translate(-2.431 -4.213)" fill="#fff"/>
        <line id="선_16" data-name="선 16" x2="15.083" transform="translate(3.142 3.98)" fill="#fff"/>
        <path id="패스_4478" data-name="패스 4478" d="M18.712,5.257H3.628A.628.628,0,1,1,3.628,4H18.712a.628.628,0,1,1,0,1.257" transform="translate(-0.486 -0.648)" fill="#fff"/>
        <line id="선_17" data-name="선 17" x2="14.245" transform="translate(0.628 18.225)" fill="#fff"/>
        <path id="패스_4479" data-name="패스 4479" d="M14.874,22.257H.628A.628.628,0,1,1,.628,21H14.874a.628.628,0,1,1,0,1.257" transform="translate(0 -3.403)" fill="#fff"/>
        <line id="선_18" data-name="선 18" x2="7.542" transform="translate(6.494 13.198)" fill="#fff"/>
        <path id="패스_4480" data-name="패스 4480" d="M15.17,16.257H7.628a.628.628,0,1,1,0-1.257H15.17a.628.628,0,1,1,0,1.257" transform="translate(-1.134 -2.431)" fill="#fff"/>
      </g>
    </g>
  </g>
</svg>
