<svg xmlns="http://www.w3.org/2000/svg" xmlns:xlink="http://www.w3.org/1999/xlink" width="110" height="110" viewBox="0 0 110 110">
  <defs>
    <clipPath id="clip-path">
      <rect id="사각형_487" data-name="사각형 487" width="84.285" height="80.404" fill="none" stroke="#fff" stroke-width="1"/>
    </clipPath>
  </defs>
  <g id="그룹_1322" data-name="그룹 1322" transform="translate(-1005 -1748)">
    <circle id="타원_28" data-name="타원 28" cx="55" cy="55" r="55" transform="translate(1005 1748)" fill="#5fc954"/>
    <g id="그룹_1315" data-name="그룹 1315" transform="translate(1018 1763)">
      <g id="그룹_1314" data-name="그룹 1314" transform="translate(0 0)" clip-path="url(#clip-path)">
        <path id="패스_10976" data-name="패스 10976" d="M38.891,124.958l-.059,0a.54.54,0,0,1-.376-.2,45.394,45.394,0,0,1-4.392-6.654.54.54,0,0,1,.217-.732c2.854-1.549,4.049-3.076,3.651-4.666-.412-1.621-2.246-3.383-4.789-4.6a10.744,10.744,0,0,0-2.65-.86,8.268,8.268,0,0,0-2.115-.12,7.283,7.283,0,0,0-4.622,2.132.54.54,0,0,1-.9-.255,28.633,28.633,0,0,1-.632-3.453.541.541,0,0,1,.406-.589c.683-.17,1.432-.384,2.358-.673l.036-.01c.593-.185,1.2-.382,1.828-.589.716-.237,1.451-.483,2.2-.733l1.473-.492q.789-.263,1.552-.518l.116-.039c.593-.2,1.174-.4,1.735-.6.862-.3,1.614-.58,2.3-.852a.542.542,0,0,1,.674.247,65.409,65.409,0,0,0,4.034,6.5.541.541,0,0,1,.09.4c-.529,3.157-1.131,6.319-1.789,9.4a15.31,15.31,0,0,0,.215,7.263.54.54,0,0,1-.364.662.683.683,0,0,1-.2.03m-3.621-6.906a44.411,44.411,0,0,0,2.688,4.248,16.423,16.423,0,0,1,.225-5.521q.161-.754.317-1.513a9.091,9.091,0,0,1-3.231,2.786m-6.3-12.028a9.583,9.583,0,0,1,1.721.159,11.843,11.843,0,0,1,2.919.946c2.827,1.349,4.885,3.382,5.374,5.309.017.067.032.134.045.2.319-1.656.62-3.324.9-4.992a66.852,66.852,0,0,1-3.745-6.01c-.579.222-1.2.45-1.894.692-.564.2-1.15.4-1.75.6l-.116.039q-.765.258-1.556.52l-1.472.491q-1.126.376-2.2.734c-.644.212-1.268.415-1.877.6l-.034.009c-.728.228-1.351.41-1.921.561.093.669.208,1.331.345,1.978a8.226,8.226,0,0,1,4.6-1.818q.326-.025.66-.025" transform="translate(-9.729 -60.668)" fill="#fff" stroke="#fff" stroke-width="1"/>
        <path id="패스_10977" data-name="패스 10977" d="M4.966,80.724C2.224,80.725.55,79.337.117,76.7-.451,73.6,1.083,69.1,3.85,65.77,6.735,62.188,10.9,60,14.68,60.044H14.7c4.159.056,7.44,2.226,9.548,3.856a18.185,18.185,0,0,1,3.565,3.642,7.061,7.061,0,0,1,.678,1.222,4.618,4.618,0,0,1,.291.99,3.059,3.059,0,0,1-.693,2.492,8.361,8.361,0,0,1-2.656,2.009c-.6.319-1.257.632-2.022.957-.324.136-.661.274-1.005.412-.705.278-1.471.561-2.343.866-.564.2-1.15.4-1.75.6l-.116.039q-.765.258-1.556.52l-1.471.491q-1.126.376-2.2.735c-.644.212-1.268.415-1.876.6l-.035.01c-.932.291-1.691.508-2.387.681-.433.107-.811.192-1.158.26a13.737,13.737,0,0,1-2.231.287c-.107,0-.212.006-.316.006m9.579-19.6c-3.437,0-7.2,2.033-9.86,5.331-2.54,3.06-4.012,7.288-3.5,10.057.365,2.227,1.653,3.218,4.061,3.127A12.649,12.649,0,0,0,7.3,79.373c.335-.066.7-.147,1.112-.25.682-.17,1.431-.384,2.356-.673l.036-.01q.89-.278,1.828-.589c.716-.237,1.451-.483,2.2-.733l1.473-.491q.789-.263,1.552-.519l.116-.039c.593-.2,1.174-.4,1.735-.6.862-.3,1.614-.58,2.3-.852.335-.134.666-.27.982-.4.733-.311,1.365-.611,1.932-.914a7.472,7.472,0,0,0,2.32-1.729l0,0a1.972,1.972,0,0,0,.472-1.641,3.539,3.539,0,0,0-.223-.752,6,6,0,0,0-.574-1.03,17.116,17.116,0,0,0-3.344-3.4c-1.977-1.529-5.064-3.576-8.908-3.622h-.127" transform="translate(4.49 -34.83)" fill="#fff" stroke="#fff" stroke-width="1"/>
        <path id="패스_10978" data-name="패스 10978" d="M79.449,121.354a11.466,11.466,0,0,1-1.888-.156,13.7,13.7,0,0,1-8.292-4.746.541.541,0,0,1-.126-.3,7.125,7.125,0,0,0-1.7-3.951c-.354-.4-.725-.85-1.167-1.4a.543.543,0,0,1-.106-.22c-.01-.036-.019-.07-.027-.1a16.4,16.4,0,0,1-.226-7.763c.655-3.062,1.254-6.207,1.78-9.348.534-3.214,1-6.493,1.39-9.746a.537.537,0,0,1,.114-.273,1.971,1.971,0,0,0,.473-1.641,3.532,3.532,0,0,0-.223-.752.534.534,0,0,1-.037-.264c.037-.346.072-.691.106-1.037a.54.54,0,0,1,.6-.483c.508.061,1.054.115,1.718.17a68.628,68.628,0,0,0,7.589.124c1.969-.073,3.809-.208,5.469-.4.718-.085,1.422-.181,2.094-.288.651-.1,1.233-.208,1.777-.318a.54.54,0,0,1,.636.418l.024.117c.036.169.071.337.1.507a.542.542,0,0,1-.1.43,9.131,9.131,0,0,0-2.083,4.733c-.128,2.007,1.1,3.66,3.758,5.052a.542.542,0,0,1,.283.4c.39,2.556.742,5.179,1.045,7.8a.543.543,0,0,1,0,.113.562.562,0,0,1-.042.167,69.177,69.177,0,0,1-3.9,7.652c-2.076,3.552-2.115,7.98-.1,11.018a.54.54,0,0,1-.071.684,12.671,12.671,0,0,1-8.871,3.814M70.2,115.877a12.623,12.623,0,0,0,7.538,4.255,11.267,11.267,0,0,0,9.511-3.063,11.854,11.854,0,0,1,.308-11.776v0a68.115,68.115,0,0,0,3.781-7.4c-.287-2.467-.617-4.937-.982-7.349-2.867-1.57-4.244-3.57-4.092-5.949a9.832,9.832,0,0,1,2.024-4.945c-.357.065-.732.13-1.133.193-.686.109-1.4.208-2.137.294-1.688.2-3.557.336-5.556.41a69.647,69.647,0,0,1-7.714-.127c-.45-.037-.846-.073-1.214-.112q-.019.185-.039.37a4.477,4.477,0,0,1,.237.854,3.028,3.028,0,0,1-.6,2.367c-.386,3.221-.849,6.466-1.379,9.648-.529,3.158-1.131,6.319-1.789,9.4a15.31,15.31,0,0,0,.215,7.263l0,.011c.4.5.741.9,1.067,1.277a8.228,8.228,0,0,1,1.947,4.385" transform="translate(-37.458 -46.605)" fill="#fff" stroke="#fff" stroke-width="1"/>
        <path id="패스_10979" data-name="패스 10979" d="M59.428,30.4c-1.712,0-3.355-.059-4.909-.178-.681-.056-1.239-.111-1.761-.174-.243-.025-.492-.054-.74-.087a.539.539,0,0,1-.376-.232,17.116,17.116,0,0,0-3.343-3.4c-1.977-1.529-5.064-3.576-8.908-3.622a.54.54,0,0,1-.517-.408,8.038,8.038,0,0,1-.217-1.317,13.461,13.461,0,0,1,1.955-7.457A27.734,27.734,0,0,1,59.179.313a22.642,22.642,0,0,1,12.9,1.622C78.9,4.884,84,11.129,84.479,17.119a9.373,9.373,0,0,1-1.19,5.612.539.539,0,0,1-.384.26,13.511,13.511,0,0,0-2.73.73,17.112,17.112,0,0,0-3.9,2.111,20.487,20.487,0,0,0-3.458,3.139.539.539,0,0,1-.283.172c-.221.053-.442.1-.667.149l-.115.024c-.566.115-1.162.221-1.828.328-.686.108-1.4.207-2.137.293-1.688.2-3.558.337-5.556.41q-1.429.051-2.8.051m-7.034-1.48q.24.03.483.055c.517.062,1.063.116,1.727.17a68.627,68.627,0,0,0,7.589.124c1.969-.073,3.809-.208,5.468-.4.718-.085,1.423-.181,2.094-.288.651-.1,1.233-.208,1.777-.318l.109-.023c.161-.035.319-.069.476-.1a21.755,21.755,0,0,1,3.528-3.176,18.194,18.194,0,0,1,4.147-2.244,14.708,14.708,0,0,1,2.687-.744,8.372,8.372,0,0,0,.922-4.76C82.957,11.686,78.014,5.679,71.65,2.925A21.745,21.745,0,0,0,64.79,1.162a21.5,21.5,0,0,0-5.429.216A26.6,26.6,0,0,0,41.554,14.049a12.4,12.4,0,0,0-1.821,6.841,7.131,7.131,0,0,0,.1.746,16.4,16.4,0,0,1,9.136,3.843,18.96,18.96,0,0,1,3.425,3.44m30.429-6.461h0Z" transform="translate(-20.227 3.592)" fill="#fff" stroke="#fff" stroke-width="1"/>
        <path id="패스_10980" data-name="패스 10980" d="M179.519,142.076c-.287,0-.6-.016-.939-.049-.231-.024-.46-.055-.7-.091-.436-.063-.916-.15-1.462-.266-.367-.076-.743-.156-1.133-.246s-.766-.174-1.162-.265l-.4-.093c-.531-.118-1.055-.236-1.557-.352l-.025-.005-.364-.087c-.258-.061-.512-.121-.759-.183-.485-.118-.963-.244-1.417-.374-.21-.058-.412-.117-.611-.179-.25-.079-.49-.16-.715-.244-.188-.069-.367-.138-.538-.209a5.159,5.159,0,0,1-1.7-1.032,2.016,2.016,0,0,1-.645-1.617c.07-1.055.845-2.3,2.369-3.806a14.509,14.509,0,0,1,1.429-1.2,8.288,8.288,0,0,1,4.062-1.658,8.649,8.649,0,0,1,6.817,2.785c1.835,1.816,3.011,4.415,2.853,6.317a2.827,2.827,0,0,1-2.987,2.84c-.131.008-.268.012-.41.012m-7.151-2.423.018,0c.505.116,1.032.235,1.57.355l.409.094c.394.091.78.18,1.158.264s.754.167,1.116.242c.526.111.982.194,1.4.254.227.034.44.063.651.085a7.553,7.553,0,0,0,1.176.034c1.287-.077,1.9-.643,1.974-1.837v-.01c.132-1.581-.937-3.882-2.542-5.47a7.564,7.564,0,0,0-5.933-2.473,7.245,7.245,0,0,0-3.544,1.458,13.343,13.343,0,0,0-1.314,1.1c-1.622,1.6-2.006,2.57-2.041,3.1a.946.946,0,0,0,.328.779,4.226,4.226,0,0,0,1.356.8c.158.066.322.129.5.193.211.079.435.154.665.227.187.058.379.114.582.17.444.128.908.25,1.381.365.246.061.5.121.751.181Z" transform="translate(-101.338 -79.65)" fill="#fff" stroke="#fff" stroke-width="1"/>
        <path id="패스_10981" data-name="패스 10981" d="M142.182,82.425c-.147,0-.3,0-.465,0a35.091,35.091,0,0,1-4.885-.453c-1.18-.183-2.346-.413-3.464-.683-.449-.109-.889-.225-1.318-.343-.39-.113-.766-.227-1.131-.347a23.368,23.368,0,0,1-3.535-1.449c-3.033-1.589-4.491-3.634-4.335-6.079a10.177,10.177,0,0,1,2.3-5.32c.2-.257.414-.524.667-.813a21.567,21.567,0,0,1,3.641-3.307,18.215,18.215,0,0,1,4.147-2.244,14.584,14.584,0,0,1,2.948-.786c.2-.031.4-.055.6-.079,5.3-.643,10.857,2.517,13.5,7.683a12.9,12.9,0,0,1,1.543,6.6c-.3,4.717-3.7,7.419-9.55,7.61-.206.009-.426.013-.666.013m-3.446-20.91a10.455,10.455,0,0,0-1.255.075c-.188.022-.375.044-.558.073a13.525,13.525,0,0,0-2.733.73,17.119,17.119,0,0,0-3.9,2.111,20.47,20.47,0,0,0-3.458,3.14c-.238.272-.441.519-.622.758a9.133,9.133,0,0,0-2.084,4.736c-.128,2.008,1.1,3.66,3.758,5.052a22.353,22.353,0,0,0,3.371,1.379c.354.117.717.227,1.087.334.412.114.841.226,1.278.333,1.088.263,2.224.486,3.377.665a33.948,33.948,0,0,0,4.737.44c.412.009.76.006,1.069-.007h.005c3.7-.12,8.171-1.362,8.51-6.6A11.815,11.815,0,0,0,149.9,68.7a12.939,12.939,0,0,0-11.16-7.182" transform="translate(-74.243 -35.081)" fill="#fff" stroke="#fff" stroke-width="1"/>
        <path id="패스_10982" data-name="패스 10982" d="M129.687,143.443a6.583,6.583,0,0,1-3.506-.974,8.66,8.66,0,0,1-2.659-2.585c-2.24-3.374-2.213-8.261.066-12.161a68.043,68.043,0,0,0,3.828-7.508c0-.011.008-.022.013-.033.893-2.046,1.7-4.17,2.393-6.313a.541.541,0,0,1,.683-.346c.352.116.716.227,1.086.334.412.114.841.227,1.278.333,1.088.263,2.224.487,3.377.665a34.049,34.049,0,0,0,4.737.44c.412.008.76.006,1.069-.008a.532.532,0,0,1,.4.157.542.542,0,0,1,.159.4c-.072,1.926-.215,3.881-.426,5.814a.541.541,0,0,1-.22.379,13.36,13.36,0,0,0-1.313,1.1c-1.622,1.6-2.006,2.57-2.041,3.1a.947.947,0,0,0,.327.779,4.226,4.226,0,0,0,1.356.8c.158.067.322.129.5.193a.54.54,0,0,1,.345.61q-.122.634-.254,1.266.27-.586.512-1.166a.539.539,0,0,1,.647-.311c.44.126.9.248,1.377.363.247.061.5.121.751.181l.347.082.018,0c.505.117,1.032.235,1.569.355l.409.094c.394.091.78.18,1.157.264s.754.167,1.116.242c.526.111.982.194,1.4.254a.54.54,0,0,1,.463.546,16.3,16.3,0,0,1-3.336,9.626,7.122,7.122,0,0,1-6.108,2.819,4.523,4.523,0,0,1-2.58-1.016,4.664,4.664,0,0,1-1.55-2.553,10.033,10.033,0,0,1-7.39,3.771m-1.256-22.857c0,.01-.008.021-.012.03a69.213,69.213,0,0,1-3.9,7.654c-2.075,3.55-2.114,7.978-.1,11.016a7.59,7.59,0,0,0,2.328,2.265c3.11,1.929,7.638.329,10.31-3.641a.54.54,0,0,1,.987.339,3.669,3.669,0,0,0,1.283,3.155,3.456,3.456,0,0,0,1.973.761,6.007,6.007,0,0,0,5.153-2.4h0a15.2,15.2,0,0,0,3.1-8.523c-.305-.052-.631-.115-.986-.191s-.743-.156-1.133-.245-.766-.174-1.162-.266l-.4-.093c-.53-.118-1.054-.236-1.557-.352l-.025-.005-.364-.086c-.258-.062-.512-.122-.759-.183-.324-.079-.644-.161-.957-.246a41.485,41.485,0,0,1-2.35,4.571.54.54,0,0,1-.988-.411c.417-1.587.794-3.225,1.122-4.876l-.109-.045a5.155,5.155,0,0,1-1.7-1.031,2.017,2.017,0,0,1-.645-1.617c.07-1.055.845-2.3,2.369-3.805a15.107,15.107,0,0,1,1.234-1.054c.174-1.638.3-3.293.372-4.93-.172,0-.354,0-.547,0a35.033,35.033,0,0,1-4.885-.452c-1.181-.183-2.347-.413-3.464-.683-.449-.109-.889-.225-1.318-.343q-.313-.091-.615-.183c-.663,1.994-1.419,3.967-2.251,5.874" transform="translate(-73.489 -69.034)" fill="#fff" stroke="#fff" stroke-width="1"/>
        <path id="패스_10983" data-name="패스 10983" d="M45.62,166.581a5.92,5.92,0,0,1-1.151-.116,8.189,8.189,0,0,1-5.56-4.6,54.935,54.935,0,0,1-3.941-11.413.54.54,0,0,1,.457-.655c.2-.027.412-.066.66-.117.323-.062.646-.136.992-.228.595-.153,1.238-.352,1.917-.592.707-.247,1.391-.518,2.034-.806.26-.118.519-.236.763-.356.218-.11.433-.221.641-.334a.54.54,0,0,1,.732.218,44.326,44.326,0,0,0,4.288,6.5c.03.04.051.064.072.09a.523.523,0,0,1,.036.048c.421.524.775.949,1.114,1.336a8.212,8.212,0,0,1,1.965,4.559,6.237,6.237,0,0,1-1.9,5.309h0a4.554,4.554,0,0,1-3.121,1.16M36.152,150.77A53.907,53.907,0,0,0,39.886,161.4a7.094,7.094,0,0,0,4.794,4,3.746,3.746,0,0,0,3.336-.783,5.171,5.171,0,0,0,1.549-4.406,7.128,7.128,0,0,0-1.7-3.953c-.354-.4-.725-.85-1.167-1.4l-.025-.034c-.026-.032-.05-.062-.072-.091a45.313,45.313,0,0,1-4.125-6.172l-.2.1c-.258.127-.527.251-.8.374-.673.3-1.386.583-2.12.84-.706.249-1.38.457-2,.617-.367.1-.713.177-1.055.243l-.144.029m12.227,14.252h0Z" transform="translate(-17.879 -90.666)" fill="#fff" stroke="#fff" stroke-width="1"/>
        <path id="패스_10984" data-name="패스 10984" d="M22.017,130.958c-2.9,0-4.821-1.371-5.475-3.96a8.445,8.445,0,0,1,.207-4.446,9.62,9.62,0,0,1,2.488-4.108,8.354,8.354,0,0,1,5.3-2.437,9.325,9.325,0,0,1,2.382.134,11.848,11.848,0,0,1,2.919.946c2.827,1.349,4.885,3.382,5.374,5.309.535,2.139-.834,4.062-4.184,5.88h0q-.326.177-.674.351c-.258.127-.527.251-.8.374-.673.3-1.386.583-2.12.84-.706.249-1.38.457-2,.618-.367.1-.713.177-1.055.243-.265.054-.493.1-.729.128a10.918,10.918,0,0,1-1.634.13m3.183-13.9c-.2,0-.393.008-.587.022a7.282,7.282,0,0,0-4.621,2.132,8.546,8.546,0,0,0-2.21,3.651,7.363,7.363,0,0,0-.193,3.869c.789,3.12,3.65,3.366,5.91,3.023.215-.028.423-.068.671-.118.323-.062.646-.136.992-.228.594-.154,1.238-.353,1.917-.592.707-.247,1.391-.518,2.034-.806.26-.117.518-.236.762-.356.218-.109.433-.221.641-.333,2.854-1.549,4.049-3.076,3.651-4.666-.411-1.622-2.246-3.383-4.788-4.6a10.752,10.752,0,0,0-2.65-.859,8.52,8.52,0,0,0-1.529-.142M30.773,127.8h0Z" transform="translate(-5.963 -70.625)" fill="#fff" stroke="#fff" stroke-width="1"/>
      </g>
    </g>
  </g>
</svg>
