<svg xmlns="http://www.w3.org/2000/svg" xmlns:xlink="http://www.w3.org/1999/xlink" width="110" height="110" viewBox="0 0 110 110">
  <defs>
    <clipPath id="clip-path">
      <rect id="사각형_467" data-name="사각형 467" width="110" height="110" transform="translate(551 2020)" fill="#fff" stroke="#707070" stroke-width="1"/>
    </clipPath>
    <clipPath id="clip-path-2">
      <rect id="사각형_457" data-name="사각형 457" width="104.759" height="82.181" transform="translate(-3 -3)" fill="#319400" stroke="#319400" stroke-width="0.5"/>
    </clipPath>
  </defs>
  <g id="마스크_그룹_5" data-name="마스크 그룹 5" transform="translate(-551 -2020)" clip-path="url(#clip-path)">
    <g id="그룹_1286" data-name="그룹 1286" transform="translate(0 6.987)">
      <text id="_16" data-name="16" transform="translate(606 2075)" fill="#ffa200" font-size="26" font-family="SpoqaHanSansNeo-Bold, Spoqa Han Sans Neo" font-weight="700"><tspan x="-15.496" y="0">16</tspan></text>
      <g id="그룹_1262" data-name="그룹 1262" transform="translate(557 2030.013)">
        <g id="그룹_1261" data-name="그룹 1261" clip-path="url(#clip-path-2)">
          <path id="패스_8384" data-name="패스 8384" d="M77.366,88.935a.749.749,0,0,1-.726-.564A10.444,10.444,0,0,1,84.1,75.68a.749.749,0,0,1,.917.539A10.446,10.446,0,0,1,77.558,88.91a.757.757,0,0,1-.192.025m6.358-11.572a8.948,8.948,0,0,0-5.795,9.864,8.948,8.948,0,0,0,5.795-9.864" transform="translate(-19.144 -18.98)" fill="#319400" stroke="#319400" stroke-width="0.5"/>
          <path id="패스_8385" data-name="패스 8385" d="M86.829,100a10.392,10.392,0,0,1-5.275-1.441h0a10.386,10.386,0,0,1-4.809-6.342.75.75,0,0,1,.539-.917,10.444,10.444,0,0,1,12.693,7.454.749.749,0,0,1-.538.918,10.529,10.529,0,0,1-2.609.33M82.312,97.27a8.9,8.9,0,0,0,5.98,1.115,8.948,8.948,0,0,0-9.865-5.794,8.89,8.89,0,0,0,3.885,4.679" transform="translate(-19.247 -22.822)" fill="#319400" stroke="#319400" stroke-width="0.5"/>
          <path id="패스_8386" data-name="패스 8386" d="M93.391,84.841h-.039a.749.749,0,0,1-.519-.249,10.445,10.445,0,0,1,.762-14.7.735.735,0,0,1,.542-.194.748.748,0,0,1,.521.249,10.448,10.448,0,0,1-.763,14.7.753.753,0,0,1-.5.194m-1.71-7.68h0a8.893,8.893,0,0,0,1.768,5.821,8.951,8.951,0,0,0,.592-11.426,8.9,8.9,0,0,0-2.36,5.605" transform="translate(-22.621 -17.484)" fill="#319400" stroke="#319400" stroke-width="0.5"/>
          <path id="패스_8387" data-name="패스 8387" d="M101.407,91.762c-.183,0-.366,0-.55-.014a10.384,10.384,0,0,1-7.193-3.409.749.749,0,0,1,.055-1.062,10.445,10.445,0,0,1,14.7.76.749.749,0,0,1-.056,1.062,10.389,10.389,0,0,1-6.956,2.662m-6.078-3.87a8.948,8.948,0,0,0,11.425.591,8.951,8.951,0,0,0-11.425-.591" transform="translate(-23.449 -21.227)" fill="#319400" stroke="#319400" stroke-width="0.5"/>
          <path id="패스_8388" data-name="패스 8388" d="M104.844,76.978a.75.75,0,0,1-.42-.129,10.444,10.444,0,0,1-2.844-14.442.751.751,0,0,1,1.044-.206,10.446,10.446,0,0,1,2.844,14.443.75.75,0,0,1-.479.32.728.728,0,0,1-.145.014M101.5,69.926a8.892,8.892,0,0,0,3.133,5.212,8.948,8.948,0,0,0-2.21-11.225,8.892,8.892,0,0,0-.923,6.013" transform="translate(-25.043 -15.572)" fill="#319400" stroke="#319400" stroke-width="0.5"/>
          <path id="패스_8389" data-name="패스 8389" d="M111.625,81.667a10.374,10.374,0,0,1-5.767-1.753.748.748,0,0,1-.205-1.044,10.444,10.444,0,0,1,14.442-2.844.75.75,0,0,1,.205,1.044,10.4,10.4,0,0,1-6.636,4.4,10.516,10.516,0,0,1-2.039.2m-4.261-2.592a8.95,8.95,0,0,0,11.223-2.21,8.95,8.95,0,0,0-11.223,2.21" transform="translate(-26.473 -18.633)" fill="#319400" stroke="#319400" stroke-width="0.5"/>
          <path id="패스_8390" data-name="패스 8390" d="M113.261,64.907a.745.745,0,0,1-.258-.046,10.4,10.4,0,0,1-5.866-5.38h0a10.4,10.4,0,0,1-.367-7.954.75.75,0,0,1,.964-.451,10.447,10.447,0,0,1,6.233,13.335.749.749,0,0,1-.706.5m-4.767-6.062a8.9,8.9,0,0,0,4.3,4.306,8.949,8.949,0,0,0-4.843-10.364,8.9,8.9,0,0,0,.548,6.058" transform="translate(-26.63 -12.802)" fill="#319400" stroke="#319400" stroke-width="0.5"/>
          <path id="패스_8391" data-name="패스 8391" d="M118.674,67.5a10.46,10.46,0,0,1-3.536-.619.748.748,0,0,1-.449-.963,10.449,10.449,0,0,1,13.335-6.234.749.749,0,0,1,.449.964,10.461,10.461,0,0,1-9.8,6.852M116.4,65.7a8.947,8.947,0,0,0,10.364-4.845A8.956,8.956,0,0,0,116.4,65.7" transform="translate(-28.76 -14.817)" fill="#319400" stroke="#319400" stroke-width="0.5"/>
          <path id="패스_8392" data-name="패스 8392" d="M115.725,50.1a10.385,10.385,0,0,1-7.06-2.752h0A10.393,10.393,0,0,1,105.3,40.13a.75.75,0,0,1,.72-.784A10.444,10.444,0,0,1,116.856,49.3a.75.75,0,0,1-.72.784c-.136.005-.274.007-.411.007m-6.046-3.856a8.892,8.892,0,0,0,5.61,2.347,8.948,8.948,0,0,0-8.423-7.739,8.884,8.884,0,0,0,2.813,5.392" transform="translate(-26.416 -9.869)" fill="#319400" stroke="#319400" stroke-width="0.5"/>
          <path id="패스_8393" data-name="패스 8393" d="M119.475,49.818a.749.749,0,0,1-.748-.72,10.446,10.446,0,0,1,9.958-10.84.749.749,0,0,1,.783.72,10.4,10.4,0,0,1-2.745,7.473h0a10.387,10.387,0,0,1-7.213,3.366h-.034m8.491-9.993a8.951,8.951,0,0,0-7.739,8.425,8.947,8.947,0,0,0,7.739-8.425" transform="translate(-29.783 -9.598)" fill="#319400" stroke="#319400" stroke-width="0.5"/>
          <path id="패스_8394" data-name="패스 8394" d="M108.886,35.436a10.445,10.445,0,0,1-3.751-.7h0a10.391,10.391,0,0,1-5.78-5.477.749.749,0,0,1,.383-.993,10.444,10.444,0,0,1,13.735,5.288.748.748,0,0,1-.382.993,10.427,10.427,0,0,1-4.2.89m-3.214-2.1a8.9,8.9,0,0,0,6.08.124,8.947,8.947,0,0,0-10.676-4.11,8.893,8.893,0,0,0,4.6,3.985" transform="translate(-24.909 -6.868)" fill="#319400" stroke="#319400" stroke-width="0.5"/>
          <path id="패스_8395" data-name="패스 8395" d="M116.783,32.259a.741.741,0,0,1-.269-.05.75.75,0,0,1-.417-.4,10.451,10.451,0,0,1,5.287-13.738.749.749,0,0,1,.993.382,10.4,10.4,0,0,1,.187,7.959h0a10.381,10.381,0,0,1-5.475,5.777.755.755,0,0,1-.307.066M121.292,19.8a8.957,8.957,0,0,0-4.109,10.677A8.948,8.948,0,0,0,121.292,19.8" transform="translate(-28.902 -4.518)" fill="#319400" stroke="#319400" stroke-width="0.5"/>
          <path id="패스_8396" data-name="패스 8396" d="M98.257,23.761a10.59,10.59,0,0,1-1.1-.057,10.383,10.383,0,0,1-7.005-3.781.75.75,0,0,1,.11-1.058,10.445,10.445,0,0,1,14.64,1.526.749.749,0,0,1-.111,1.058,10.375,10.375,0,0,1-6.537,2.312m-.942-1.547a8.912,8.912,0,0,0,5.9-1.463A8.949,8.949,0,0,0,91.84,19.564a8.886,8.886,0,0,0,5.475,2.65" transform="translate(-22.575 -4.153)" fill="#319400" stroke="#319400" stroke-width="0.5"/>
          <path id="패스_8397" data-name="패스 8397" d="M108.157,18.257a.669.669,0,0,1-.078,0,.748.748,0,0,1-.506-.275A10.452,10.452,0,0,1,109.1,3.336a.749.749,0,0,1,1.059.11,10.447,10.447,0,0,1-1.526,14.641.751.751,0,0,1-.473.169m1.3-13.234A8.958,8.958,0,0,0,108.271,16.4a8.947,8.947,0,0,0,1.185-11.379" transform="translate(-26.407 -0.794)" fill="#319400" stroke="#319400" stroke-width="0.5"/>
          <path id="패스_8398" data-name="패스 8398" d="M100.2,12.1a.692.692,0,0,1-.079,0,10.368,10.368,0,0,1-7-3.8A10.391,10.391,0,0,1,90.834.675.75.75,0,0,1,91.66,0a10.4,10.4,0,0,1,7,3.8h0a10.388,10.388,0,0,1,2.286,7.624.749.749,0,0,1-.745.675M92.281,1.612a8.885,8.885,0,0,0,2.006,5.744A8.87,8.87,0,0,0,99.5,10.492a8.951,8.951,0,0,0-7.216-8.879" transform="translate(-22.774 0)" fill="#319400" stroke="#319400" stroke-width="0.5"/>
          <path id="패스_8399" data-name="패스 8399" d="M77.72,74.934v-1.5A30.771,30.771,0,0,0,99.478,20.905l1.059-1.059A32.269,32.269,0,0,1,77.72,74.934" transform="translate(-19.498 -4.979)" fill="#319400" stroke="#319400" stroke-width="0.5"/>
          <path id="패스_8400" data-name="패스 8400" d="M52.776,88.935a.757.757,0,0,1-.192-.025,10.445,10.445,0,0,1-7.455-12.691.749.749,0,0,1,.917-.539A10.446,10.446,0,0,1,53.5,88.371a.75.75,0,0,1-.726.564M46.418,77.363a8.948,8.948,0,0,0,5.795,9.864,8.948,8.948,0,0,0-5.795-9.864" transform="translate(-11.239 -18.98)" fill="#319400" stroke="#319400" stroke-width="0.5"/>
          <path id="패스_8401" data-name="패스 8401" d="M41.89,100a10.514,10.514,0,0,1-2.608-.33.749.749,0,0,1-.539-.918A10.444,10.444,0,0,1,51.436,91.3a.748.748,0,0,1,.538.917A10.453,10.453,0,0,1,41.89,100m-1.464-1.619a8.948,8.948,0,0,0,9.865-5.794,8.948,8.948,0,0,0-9.865,5.794" transform="translate(-9.713 -22.822)" fill="#319400" stroke="#319400" stroke-width="0.5"/>
          <path id="패스_8402" data-name="패스 8402" d="M37.382,84.841a.751.751,0,0,1-.5-.194,10.449,10.449,0,0,1-.762-14.7.748.748,0,0,1,1.062-.055,10.447,10.447,0,0,1,.762,14.7.747.747,0,0,1-.52.249h-.038m-.65-13.285a8.951,8.951,0,0,0,.593,11.425,8.948,8.948,0,0,0-.593-11.425" transform="translate(-8.393 -17.484)" fill="#319400" stroke="#319400" stroke-width="0.5"/>
          <path id="패스_8403" data-name="패스 8403" d="M26.688,91.762A10.392,10.392,0,0,1,19.731,89.1a.75.75,0,0,1-.055-1.062,10.446,10.446,0,0,1,14.7-.76.75.75,0,0,1,.055,1.062,10.385,10.385,0,0,1-7.193,3.409c-.184.01-.367.014-.55.014m-5.347-3.279a8.947,8.947,0,0,0,11.424-.591,8.95,8.95,0,0,0-11.424.591" transform="translate(-4.887 -21.227)" fill="#319400" stroke="#319400" stroke-width="0.5"/>
          <path id="패스_8404" data-name="패스 8404" d="M25.847,76.979a.735.735,0,0,1-.145-.014.748.748,0,0,1-.479-.32A10.443,10.443,0,0,1,28.066,62.2a.749.749,0,0,1,1.044.205A10.445,10.445,0,0,1,26.266,76.85a.753.753,0,0,1-.42.128m2.424-13.065a8.949,8.949,0,0,0-2.21,11.225,8.946,8.946,0,0,0,2.21-11.225" transform="translate(-5.888 -15.572)" fill="#319400" stroke="#319400" stroke-width="0.5"/>
          <path id="패스_8405" data-name="패스 8405" d="M16.55,81.667a10.519,10.519,0,0,1-2.038-.2,10.391,10.391,0,0,1-6.635-4.4.749.749,0,0,1,.2-1.044A10.447,10.447,0,0,1,22.524,78.87a.75.75,0,0,1-.206,1.044,10.375,10.375,0,0,1-5.768,1.753m-6.962-4.8a8.951,8.951,0,0,0,11.224,2.21,8.953,8.953,0,0,0-11.224-2.21" transform="translate(-1.944 -18.633)" fill="#319400" stroke="#319400" stroke-width="0.5"/>
          <path id="패스_8406" data-name="패스 8406" d="M17.08,64.907a.76.76,0,0,1-.318-.07.749.749,0,0,1-.387-.426,10.447,10.447,0,0,1,6.233-13.335.749.749,0,0,1,.963.451A10.4,10.4,0,0,1,23.2,59.48h0a10.394,10.394,0,0,1-5.865,5.38.752.752,0,0,1-.258.046m5.315-12.12a8.949,8.949,0,0,0-4.844,10.364,8.942,8.942,0,0,0,4.844-10.364" transform="translate(-3.953 -12.802)" fill="#319400" stroke="#319400" stroke-width="0.5"/>
          <path id="패스_8407" data-name="패스 8407" d="M9.845,67.5a10.417,10.417,0,0,1-4.415-.987h0A10.4,10.4,0,0,1,.047,60.645a.75.75,0,0,1,.45-.963,10.377,10.377,0,0,1,7.952.37,10.374,10.374,0,0,1,5.383,5.864.751.751,0,0,1-.45.963,10.46,10.46,0,0,1-3.536.619M6.064,65.153a8.877,8.877,0,0,0,6.056.549,8.873,8.873,0,0,0-4.306-4.293,8.886,8.886,0,0,0-6.057-.551,8.9,8.9,0,0,0,4.308,4.3" transform="translate(0 -14.817)" fill="#319400" stroke="#319400" stroke-width="0.5"/>
          <path id="패스_8408" data-name="패스 8408" d="M13.571,50.1c-.137,0-.274,0-.412-.008a.748.748,0,0,1-.719-.783,10.444,10.444,0,0,1,10.838-9.958.749.749,0,0,1,.72.784,10.384,10.384,0,0,1-3.367,7.213h0a10.387,10.387,0,0,1-7.06,2.752m8.859-9.248a8.945,8.945,0,0,0-8.423,7.739,8.945,8.945,0,0,0,8.423-7.739" transform="translate(-3.121 -9.869)" fill="#319400" stroke="#319400" stroke-width="0.5"/>
          <path id="패스_8409" data-name="패스 8409" d="M10.09,49.818h-.034a10.379,10.379,0,0,1-7.213-3.366h0A10.4,10.4,0,0,1,.1,38.979a.75.75,0,0,1,.783-.721,10.381,10.381,0,0,1,7.214,3.37,10.367,10.367,0,0,1,2.745,7.47.75.75,0,0,1-.748.719m-6.144-4.38a8.886,8.886,0,0,0,5.391,2.813A8.869,8.869,0,0,0,6.99,42.642,8.881,8.881,0,0,0,1.6,39.826a8.9,8.9,0,0,0,2.348,5.612" transform="translate(-0.022 -9.598)" fill="#319400" stroke="#319400" stroke-width="0.5"/>
          <path id="패스_8410" data-name="패스 8410" d="M19.509,35.436a10.433,10.433,0,0,1-4.206-.89.75.75,0,0,1-.382-.992,10.444,10.444,0,0,1,13.736-5.288.751.751,0,0,1,.383.993,10.388,10.388,0,0,1-5.78,5.477h0a10.46,10.46,0,0,1-3.751.7m-2.866-1.975a8.943,8.943,0,0,0,10.675-4.109,8.946,8.946,0,0,0-10.675,4.109" transform="translate(-3.727 -6.868)" fill="#319400" stroke="#319400" stroke-width="0.5"/>
          <path id="패스_8411" data-name="패스 8411" d="M13.685,32.259a.754.754,0,0,1-.307-.065A10.444,10.444,0,0,1,8.09,18.457a.748.748,0,0,1,.993-.383A10.45,10.45,0,0,1,14.37,31.812a.75.75,0,0,1-.685.447M9.3,25.878a8.88,8.88,0,0,0,3.983,4.594A8.957,8.957,0,0,0,9.177,19.8,8.9,8.9,0,0,0,9.3,25.878" transform="translate(-1.807 -4.518)" fill="#319400" stroke="#319400" stroke-width="0.5"/>
          <path id="패스_8412" data-name="패스 8412" d="M29.857,23.761a10.383,10.383,0,0,1-6.538-2.312.749.749,0,0,1-.109-1.058,10.445,10.445,0,0,1,14.64-1.527.749.749,0,0,1,.11,1.059,10.384,10.384,0,0,1-7.005,3.78h0a10.578,10.578,0,0,1-1.1.058M24.9,20.75a8.947,8.947,0,0,0,11.378-1.186A8.947,8.947,0,0,0,24.9,20.75" transform="translate(-5.78 -4.153)" fill="#319400" stroke="#319400" stroke-width="0.5"/>
          <path id="패스_8413" data-name="패스 8413" d="M22.6,18.256a.748.748,0,0,1-.473-.169A10.446,10.446,0,0,1,20.6,3.446a.749.749,0,0,1,1.059-.11,10.449,10.449,0,0,1,1.524,14.641.751.751,0,0,1-.506.275c-.025,0-.052,0-.077,0m-2.764-7.329A8.874,8.874,0,0,0,22.482,16.4,8.957,8.957,0,0,0,21.3,5.023a8.892,8.892,0,0,0-1.463,5.9" transform="translate(-4.587 -0.795)" fill="#319400" stroke="#319400" stroke-width="0.5"/>
          <path id="패스_8414" data-name="패스 8414" d="M29.548,12.1a.749.749,0,0,1-.745-.675A10.392,10.392,0,0,1,31.089,3.8h0a10.4,10.4,0,0,1,7-3.8.748.748,0,0,1,.826.67A10.4,10.4,0,0,1,36.622,8.3a10.365,10.365,0,0,1-6.995,3.8.715.715,0,0,1-.079,0m2.7-7.354h0a8.894,8.894,0,0,0-2,5.743,8.866,8.866,0,0,0,5.209-3.136,8.891,8.891,0,0,0,2.006-5.744,8.907,8.907,0,0,0-5.212,3.137" transform="translate(-7.213 0)" fill="#319400" stroke="#319400" stroke-width="0.5"/>
          <path id="패스_8415" data-name="패스 8415" d="M44.639,74.934A32.269,32.269,0,0,1,21.822,19.846l1.059,1.059A30.771,30.771,0,0,0,44.639,73.436Z" transform="translate(-3.103 -4.979)" fill="#319400" stroke="#319400" stroke-width="0.5"/>
          <path id="패스_8416" data-name="패스 8416" d="M65.3,87.136l.981,3.017h3.173l-2.567,1.865.981,3.018L65.3,93.172l-2.567,1.865.981-3.018-2.567-1.865h3.173Z" transform="translate(-15.34 -21.86)" fill="#319400" stroke="#319400" stroke-width="0.5"/>
        </g>
      </g>
    </g>
  </g>
</svg>
