<svg xmlns="http://www.w3.org/2000/svg" xmlns:xlink="http://www.w3.org/1999/xlink" width="110" height="110" viewBox="0 0 110 110">
  <defs>
    <clipPath id="clip-path">
      <rect id="사각형_481" data-name="사각형 481" width="55.737" height="81.61" fill="none"/>
    </clipPath>
  </defs>
  <g id="그룹_1316" data-name="그룹 1316" transform="translate(-1351 -1758)">
    <circle id="타원_27" data-name="타원 27" cx="55" cy="55" r="55" transform="translate(1351 1758)" fill="#5fc954"/>
    <g id="그룹_1304" data-name="그룹 1304" transform="translate(1378 1772)" clip-path="url(#clip-path)">
      <path id="패스_10952" data-name="패스 10952" d="M50.779,79.706a6.4,6.4,0,0,1-4.124,5.021,6.394,6.394,0,0,1,4.124,5.021A6.4,6.4,0,0,1,54.9,84.727a6.4,6.4,0,0,1-4.124-5.021" transform="translate(-4.763 -8.137)" fill="#fff"/>
      <path id="패스_10953" data-name="패스 10953" d="M60.2,77.184a1.647,1.647,0,1,1-1.647-1.646A1.647,1.647,0,0,1,60.2,77.184" transform="translate(-5.81 -7.712)" fill="#fff"/>
      <path id="패스_10954" data-name="패스 10954" d="M15.626,87.518a1.647,1.647,0,1,1-1.647-1.647,1.647,1.647,0,0,1,1.647,1.647" transform="translate(-1.259 -8.767)" fill="#fff"/>
      <path id="패스_10955" data-name="패스 10955" d="M6.359,63.735c-.776,3.886-3.231,6.94-6.359,7.9,3.128.964,5.583,4.017,6.359,7.9.778-3.887,3.232-6.94,6.361-7.9-3.129-.963-5.583-4.016-6.361-7.9" transform="translate(0 -6.507)" fill="#fff"/>
      <path id="패스_10956" data-name="패스 10956" d="M31.907,82.409a13.243,13.243,0,0,1-2.286-.2,15.882,15.882,0,0,1-10.508-6.968,18.394,18.394,0,0,1-2.579-14.174A227.652,227.652,0,0,0,20.676,36.1l.147-1.351,1.35.159c.6.071,1.22.133,1.858.195a74.93,74.93,0,0,0,8.17.21c2.077-.054,4.058-.182,5.886-.379.779-.081,1.529-.178,2.235-.288.654-.1,1.288-.2,1.906-.322l1.325-.261.257,1.327A251.8,251.8,0,0,1,47.556,62.88a19.045,19.045,0,0,1-5.879,15.591,14.55,14.55,0,0,1-9.77,3.938M23.2,37.731a230.692,230.692,0,0,1-4.041,23.926,15.686,15.686,0,0,0,2.19,12.09,13.217,13.217,0,0,0,8.733,5.81,11.424,11.424,0,0,0,9.776-3.078A16.334,16.334,0,0,0,44.871,63.1a249.389,249.389,0,0,0-3.458-25.891c-.227.037-.456.072-.685.106-.743.117-1.539.219-2.358.3-1.9.2-3.95.337-6.1.393a77.153,77.153,0,0,1-8.483-.221l-.58-.057" transform="translate(-1.642 -3.478)" fill="#fff"/>
      <path id="패스_10957" data-name="패스 10957" d="M28.835,34.559c-2.207,0-4.287-.084-6.207-.249-.67-.065-1.307-.129-1.927-.2C10.56,32.857,5.206,29.25,4.78,23.387a15.319,15.319,0,0,1,2.3-8.521C10.336,9.206,17.754,2.007,27.956.321a24.762,24.762,0,0,1,6.414-.2,25.562,25.562,0,0,1,8.043,2.15c7.623,3.388,13.29,10.5,13.774,17.286.363,4.989-1.877,11.458-14.6,13.935-.656.129-1.332.241-2.017.342-.742.117-1.539.219-2.358.3-1.9.2-3.95.337-6.1.392q-1.158.028-2.276.029M31.929,2.694a22.038,22.038,0,0,0-3.537.286A28.111,28.111,0,0,0,9.419,16.2a12.678,12.678,0,0,0-1.953,6.986c.32,4.4,4.881,7.175,13.557,8.246.594.07,1.214.131,1.851.193a74.7,74.7,0,0,0,8.17.21c2.077-.054,4.058-.181,5.886-.379.779-.081,1.529-.177,2.235-.287.654-.1,1.288-.2,1.906-.323h0c8.659-1.684,12.84-5.419,12.427-11.1C53.09,14,47.964,7.687,41.313,4.73A22.871,22.871,0,0,0,34.106,2.8a21.784,21.784,0,0,0-2.177-.109" transform="translate(-0.485 0)" fill="#fff"/>
    </g>
  </g>
</svg>
